<svg version="1.1" viewBox="0.0 0.0 711.0787401574803 280.90551181102364" fill="none" stroke="none" stroke-linecap="square" stroke-miterlimit="10" xmlns:xlink="http://www.w3.org/1999/xlink" xmlns="http://www.w3.org/2000/svg"><clipPath id="p.0"><path d="m0 0l711.07874 0l0 280.90552l-711.07874 0l0 -280.90552z" clip-rule="nonzero"/></clipPath><g clip-path="url(#p.0)"><path fill="#000000" fill-opacity="0.0" d="m0 0l711.07874 0l0 280.90552l-711.07874 0z" fill-rule="evenodd"/><path fill="#fff800" d="m0 33.63517l711.71655 0l0 216.97638l-711.71655 0z" fill-rule="evenodd"/><path fill="#000000" fill-opacity="0.0" d="m28.33071 -30.627296l655.0551 0l0 306.80313l-655.0551 0z" fill-rule="evenodd"/><path fill="#000000" d="m232.3371 87.17458q0 5.890625 1.78125 8.578125q1.796875 2.6875 6.40625 2.6875l0 2.6875q-3.96875 -0.390625 -7.9375 -0.390625q-11.390625 0 -18.6875 1.796875l0 -11.015625q-4.34375 11.53125 -16.640625 11.53125q-12.03125 0 -19.140625 -8.765625q-7.09375 -8.78125 -6.96875 -26.4375q0 -11.265625 3.640625 -19.0q3.65625 -7.75 10.125 -11.65625q6.46875 -3.90625 14.78125 -3.90625q9.34375 0 14.203125 4.859375l0 -21.75q0 -5.890625 -1.859375 -8.578125q-1.84375 -2.6875 -6.328125 -2.6875l0 -2.6875002q4.09375 0.375 7.9375 0.375q11.140625 0 18.6875 -1.7812499l0 86.140625zm-29.828125 10.359375q4.234375 0 7.484375 -3.0625q3.265625 -3.078125 3.90625 -8.328125l0 -44.796875q-3.1875 -4.34375 -9.34375 -4.34375q-6.78125 0 -10.5 7.8125q-3.703125 7.796875 -3.578125 23.28125q-0.125 15.625 3.015625 22.53125q3.140625 6.90625 9.015625 6.90625zm60.044006 -95.484375q5.375 0 8.5 2.6250002q3.140625 2.625 3.140625 7.234375q0 4.609375 -3.140625 7.234375q-3.125 2.625 -8.5 2.625q-5.375 0 -8.515625 -2.625q-3.125 -2.625 -3.125 -7.234375q0 -4.609375 3.125 -7.234375q3.140625 -2.6250002 8.515625 -2.6250002zm9.984375 87.296875q0 5.25 1.84375 7.234375q1.859375 1.984375 6.34375 1.984375l0 2.6875q-12.796875 -0.515625 -17.03125 -0.515625q-3.96875 0 -17.78125 0.515625l0 -2.6875q4.609375 0 6.390625 -1.984375q1.796875 -1.984375 1.796875 -7.234375l0 -40.3125q0 -5.890625 -1.796875 -8.578125q-1.78125 -2.6875 -6.390625 -2.6875l0 -2.6875q4.09375 0.375 7.9375 0.375q11.390625 0 18.6875 -1.78125l0 55.671875zm74.36691 -41.984375q-2.5625 0 -4.359375 -1.71875q-1.796875 -1.734375 -1.796875 -4.9375q0 -3.0625 1.546875 -6.265625q-3.078125 1.28125 -5.0625 2.875q-1.984375 1.59375 -3.390625 4.03125q3.96875 4.734375 3.96875 12.296875q0 10.109375 -6.984375 15.234375q-6.96875 5.109375 -18.484375 5.109375l-2.3125 0q-5.25 3.078125 -5.25 6.78125q0 4.09375 5.125 4.09375l13.953125 0q11.265625 0 17.984375 4.171875q6.71875 4.15625 6.71875 12.734375q0 6.53125 -4.15625 11.828125q-4.15625 5.3125 -12.609375 8.515625q-8.453125 3.203125 -20.734375 3.203125q-12.421875 0 -19.90625 -3.140625q-7.4844055 -3.125 -7.4844055 -9.015625q0 -3.96875 3.5781555 -7.109375q3.59375 -3.140625 10.625 -4.921875l1.15625 2.046875q-4.609375 3.84375 -4.609375 8.828125q0 5.375 4.859375 8.25q4.859375 2.890625 13.4375 2.890625q8.96875 0 14.53125 -3.59375q5.5625 -3.578125 5.5625 -10.109375q0 -4.21875 -3.140625 -6.65625q-3.125 -2.421875 -10.9375 -2.421875l-7.9375 0q-8.1875 0 -12.796875 -2.75q-4.609375 -2.765625 -4.609375 -8.390625q0 -4.734375 3.328125 -8.4375q3.328125 -3.71875 10.125 -7.171875q-9.21875 -1.15625 -14.59375 -6.140625q-5.375 -5.0 -5.375 -13.828125q0 -10.125 6.96875 -15.234375q6.96875 -5.125 18.5 -5.125q12.796875 0 19.578125 6.015625q2.4375 -3.453125 6.015625 -5.5q3.59375 -2.046875 7.296875 -2.046875q3.84375 0 6.078125 2.234375q2.25 2.234375 2.25 5.828125q0 3.578125 -1.984375 5.5625q-1.984375 1.984375 -4.671875 1.984375zm-34.5625 24.328125q3.578125 0 5.4375 -4.09375q1.859375 -4.109375 1.859375 -13.953125q0 -9.859375 -1.859375 -13.953125q-1.859375 -4.09375 -5.4375 -4.09375q-3.59375 0 -5.453125 4.09375q-1.84375 4.09375 -1.84375 13.953125q0 9.84375 1.84375 13.953125q1.859375 4.09375 5.453125 4.09375zm61.315247 -69.640625q5.375 0 8.5 2.6250002q3.140625 2.625 3.140625 7.234375q0 4.609375 -3.140625 7.234375q-3.125 2.625 -8.5 2.625q-5.375 0 -8.515625 -2.625q-3.125 -2.625 -3.125 -7.234375q0 -4.609375 3.125 -7.234375q3.140625 -2.6250002 8.515625 -2.6250002zm9.984375 87.296875q0 5.25 1.84375 7.234375q1.859375 1.984375 6.34375 1.984375l0 2.6875q-12.796875 -0.515625 -17.03125 -0.515625q-3.96875 0 -17.78125 0.515625l0 -2.6875q4.609375 0 6.390625 -1.984375q1.796875 -1.984375 1.796875 -7.234375l0 -40.3125q0 -5.890625 -1.796875 -8.578125q-1.78125 -2.6875 -6.390625 -2.6875l0 -2.6875q4.09375 0.375 7.9375 0.375q11.390625 0 18.6875 -1.78125l0 55.671875zm39.679382 -54.265625l15.09375 0l0 2.5625l-15.09375 0l0 51.703125q0 3.84375 1.34375 5.453125q1.34375 1.59375 4.28125 1.59375q5.5 0 8.703125 -7.6875l2.171875 1.15625q-4.859375 13.1875 -17.53125 13.1875q-8.453125 0 -12.796875 -4.359375q-2.6875 -2.6875 -3.65625 -6.71875q-0.953125 -4.03125 -0.953125 -11.078125l0 -43.25l-10.75 0l0 -2.5625l10.75 0l0 -16.90625q10.625 0 18.4375 -4.09375l0 21.0zm35.96228 67.0625q-8.1875 0 -12.21875 -4.21875q-4.03125 -4.21875 -4.03125 -11.140625q0 -5.75 3.0 -9.53125q3.015625 -3.78125 7.296875 -5.828125q4.28125 -2.046875 10.9375 -4.34375q7.046875 -2.4375 10.3125 -4.421875q3.265625 -1.984375 3.265625 -5.4375l0 -9.984375q0 -5.375 -2.5 -8.375q-2.5 -3.015625 -7.75 -3.015625q-6.140625 0 -9.34375 3.0625q3.59375 1.28125 5.578125 3.84375q1.984375 2.5625 1.984375 6.015625q0 4.359375 -2.953125 6.921875q-2.9375 2.546875 -7.15625 2.546875q-4.484375 0 -6.921875 -2.8125q-2.421875 -2.8125 -2.421875 -7.03125q0 -3.59375 1.71875 -6.078125q1.734375 -2.5 5.3125 -4.671875q3.453125 -2.046875 8.5 -3.203125q5.0625 -1.15625 11.078125 -1.15625q6.28125 0 10.890625 1.28125q4.609375 1.28125 7.671875 4.34375q2.828125 2.828125 3.78125 6.921875q0.953125 4.09375 0.953125 11.140625l0 34.8125q0 3.0625 0.578125 4.34375q0.578125 1.28125 2.25 1.28125q1.921875 0 4.609375 -2.171875l1.265625 2.171875q-5.75 4.734375 -14.078125 4.734375q-7.03125 0 -9.859375 -2.8125q-2.8125 -2.8125 -2.9375 -7.546875q-6.390625 10.359375 -18.8125 10.359375zm9.859375 -8.1875q4.984375 0 8.703125 -5.25l0 -26.234375q-1.546875 2.5625 -6.53125 5.625q-4.984375 3.203125 -7.546875 6.40625q-2.5625 3.203125 -2.5625 9.21875q0 5.25 2.171875 7.75q2.171875 2.484375 5.765625 2.484375zm65.66336 -4.609375q0 5.25 1.78125 7.234375q1.796875 1.984375 6.40625 1.984375l0 2.6875q-13.3125 -0.515625 -17.15625 -0.515625q-4.34375 0 -17.65622 0.515625l0 -2.6875q4.4843445 0 6.3280945 -1.984375q1.859375 -1.984375 1.859375 -7.234375l0 -72.953125q0 -5.890625 -1.859375 -8.578125q-1.84375 -2.6875 -6.3280945 -2.6875l0 -2.6875002q4.0937195 0.375 7.9374695 0.375q11.125 0 18.6875 -1.7812499l0 88.3125z" fill-rule="nonzero"/><path fill="#000000" d="m222.7441 187.28395q4.859375 0 8.953125 1.21875q4.09375 1.21875 6.265625 2.75q1.28125 0.890625 2.3125 0.890625q1.15625 0 1.984375 -1.203125q0.828125 -1.21875 1.09375 -3.53125l2.6875 0q-0.515625 6.53125 -0.515625 22.53125l-2.6875 0q-1.15625 -8.453125 -5.0625 -14.140625q-3.90625 -5.703125 -11.328125 -5.703125q-3.84375 0 -6.34375 2.1875q-2.484375 2.171875 -2.484375 6.015625q0 4.34375 2.9375 7.484375q2.953125 3.125 9.21875 7.609375l3.71875 2.6875q7.796875 5.890625 11.515625 10.5q3.71875 4.609375 3.71875 11.515625q0 5.640625 -3.265625 10.0q-3.265625 4.34375 -8.78125 6.65625q-5.5 2.2968903 -12.15625 2.2968903q-7.03125 0 -12.03125 -2.6875153q-4.09375 -2.046875 -5.890625 -2.6875q-1.265625 -0.390625 -2.234375 0.828125q-0.953125 1.21875 -1.46875 3.6406403l-2.6875 0q0.515625 -7.2968903 0.515625 -25.593765l2.6875 0q2.546875 23.546875 17.28125 23.546875q3.703125 0 6.328125 -2.234375q2.625 -2.234375 2.625 -6.84375q0 -3.59375 -1.609375 -6.40625q-1.59375 -2.8125 -4.03125 -4.984375q-2.421875 -2.1875 -7.28125 -6.015625q-5.765625 -4.609375 -8.78125 -7.421875q-3.0 -2.828125 -5.109375 -6.65625q-2.109375 -3.84375 -2.109375 -8.578125q0 -8.203125 6.390625 -12.9375q6.40625 -4.734375 15.625 -4.734375zm71.41728 59.265625q10.5 0 16.890625 -10.234375l2.3125 0.765625q-2.5625 8.3125 -9.15625 14.140625q-6.59375 5.8281403 -16.453125 5.8281403q-13.5625 0 -21.5625 -8.64064q-8.0 -8.640625 -8.0 -25.546875q0 -17.265625 8.578125 -26.421875q8.578125 -9.15625 22.78125 -9.15625q24.0625 0 24.0625 28.421875l-35.96875 0q-0.125 1.921875 -0.125 6.015625q0 8.4375 2.359375 14.078125q2.375 5.625 6.15625 8.1875q3.78125 2.5625 8.125 2.5625zm-5.375 -56.578125q-4.609375 0 -7.625 5.703125q-3.0 5.6875 -3.765625 17.59375l20.09375 0q0.25 -10.109375 -1.984375 -16.703125q-2.234375 -6.59375 -6.71875 -6.59375zm58.24637 -0.890625l15.09375 0l0 2.5625l-15.09375 0l0 51.703125q0 3.84375 1.34375 5.453125q1.34375 1.59375 4.28125 1.59375q5.5 0 8.703125 -7.6875l2.171875 1.15625q-4.859375 13.187515 -17.53125 13.187515q-8.453125 0 -12.796875 -4.3593903q-2.6875 -2.6875 -3.65625 -6.71875q-0.953125 -4.03125 -0.953125 -11.078125l0 -43.25l-10.75 0l0 -2.5625l10.75 0l0 -16.90625q10.625 0 18.4375 -4.09375l0 21.0zm82.80603 52.21875q0 5.890625 1.859375 8.578125q1.859375 2.6875 6.34375 2.6875l0 2.6875q-3.96875 -0.390625 -7.9375 -0.390625q-11.140625 0 -18.6875 1.7968903l0 -11.51564q-5.890625 11.906265 -20.609375 11.906265q-9.609375 0 -13.953125 -5.0000153q-2.046875 -2.421875 -3.015625 -6.328125q-0.953125 -3.90625 -0.953125 -10.3125l0 -32.375q0 -5.890625 -1.859375 -8.578125q-1.859375 -2.6875 -6.34375 -2.6875l0 -2.6875q3.96875 0.375 7.9375 0.375q11.140625 0 18.6875 -1.78125l0 52.984375q0 5.375 1.59375 8.0625q1.609375 2.6875 6.09375 2.6875q5.125 0 8.765625 -4.28125q3.65625 -4.296875 3.65625 -10.5625l0 -33.53125q0 -5.890625 -1.859375 -8.578125q-1.859375 -2.6875 -6.34375 -2.6875l0 -2.6875q4.09375 0.375 7.9375 0.375q11.140625 0 18.6875 -1.78125l0 53.625zm59.786743 -54.015625q6.65625 0 11.828125 3.59375q5.1875 3.578125 8.125 10.75q2.9530945 7.15625 2.9530945 17.53125q0 18.296875 -7.9999695 28.09375q-8.0 9.79689 -21.703125 9.79689q-3.828125 0 -7.234375 -1.03125q-3.390625 -1.0156403 -5.8125 -3.0625153l0 12.79689q0 5.625 2.8125 7.796875q2.8125 2.1875 8.703125 2.1875l0 2.6875l-3.453125 -0.125q-14.203125 -0.390625 -18.046875 -0.390625q-3.84375 0 -16.125 0.515625l0 -2.6875q4.21875 0 5.9375 -1.859375q1.734375 -1.859375 1.734375 -6.84375l0 -64.000015q0 -5.890625 -1.859375 -8.578125q-1.84375 -2.6875 -6.328125 -2.6875l0 -2.6875q4.09375 0.375 7.9375 0.375q11.125 0 18.6875 -1.78125l0 11.765625q2.6875 -5.890625 7.796875 -9.015625q5.125 -3.140625 12.046875 -3.140625zm-11.78125 66.3125q8.1875 0 11.765625 -8.125q3.59375 -8.140625 3.59375 -23.75q0 -15.625 -2.890625 -22.28125q-2.875 -6.65625 -8.25 -6.65625q-4.34375 0 -7.734375 2.953125q-3.390625 2.9375 -4.546875 8.1875l0 46.203125q3.0625 3.46875 8.0625 3.46875z" fill-rule="nonzero"/></g></svg>